# Blender v2.78 (sub 0) OBJ File: ''
# www.blender.org
o Line448_Untitled.190
v 0.044091 -0.000585 0.001206
v 0.080798 0.193701 0.001206
v 0.093837 0.288697 0.001206
v 0.096592 0.373224 0.001206
v 0.075535 0.437862 0.001206
v 0.051022 0.483765 0.001206
v 0.036146 0.513416 0.001319
v 0.055118 0.527483 0.001206
v 0.054401 0.533884 0.001206
v 0.049165 0.535962 0.001206
v 0.026694 0.515297 0.001319
v 0.037630 0.012759 0.001206
v 0.038173 -0.000585 -0.020880
v 0.069962 0.193701 -0.039233
v 0.081255 0.288697 -0.045753
v 0.083641 0.373224 -0.047130
v 0.065405 0.437862 -0.036602
v 0.044175 0.483765 -0.024345
v 0.031267 0.513416 -0.016892
v 0.047723 0.527483 -0.026393
v 0.047102 0.533884 -0.026035
v 0.042567 0.535962 -0.023417
v 0.023081 0.515297 -0.012166
v 0.032577 0.012759 -0.017649
v 0.022005 -0.000585 -0.037048
v 0.040358 0.193701 -0.068837
v 0.046878 0.288697 -0.080130
v 0.048256 0.373224 -0.082515
v 0.037727 0.437862 -0.064280
v 0.025470 0.483765 -0.043050
v 0.017935 0.513416 -0.030224
v 0.027519 0.527483 -0.046598
v 0.027160 0.533884 -0.045977
v 0.024542 0.535962 -0.041442
v 0.013209 0.515297 -0.022038
v 0.018774 0.012759 -0.031452
v -0.000081 -0.000585 -0.042966
v -0.000081 0.193701 -0.079673
v -0.000081 0.288697 -0.092712
v -0.000081 0.373224 -0.095467
v -0.000081 0.437862 -0.074410
v -0.000081 0.483765 -0.049896
v -0.000276 0.513416 -0.035103
v -0.000081 0.527483 -0.053993
v -0.000081 0.533884 -0.053276
v -0.000081 0.535962 -0.048040
v -0.000276 0.515297 -0.025651
v -0.000081 0.012759 -0.036505
v -0.022168 -0.000585 -0.037048
v -0.040521 0.193701 -0.068837
v -0.047041 0.288697 -0.080130
v -0.048418 0.373224 -0.082515
v -0.037890 0.437862 -0.064280
v -0.025633 0.483765 -0.043050
v -0.018487 0.513416 -0.030224
v -0.027681 0.527483 -0.046598
v -0.027322 0.533884 -0.045977
v -0.024704 0.535962 -0.041442
v -0.013761 0.515297 -0.022038
v -0.018937 0.012759 -0.031452
v -0.038336 -0.000585 -0.020880
v -0.070125 0.193701 -0.039233
v -0.081417 0.288697 -0.045753
v -0.083803 0.373224 -0.047130
v -0.065567 0.437862 -0.036602
v -0.044338 0.483765 -0.024345
v -0.031818 0.513416 -0.016892
v -0.047886 0.527483 -0.026393
v -0.047264 0.533884 -0.026035
v -0.042730 0.535962 -0.023417
v -0.023632 0.515297 -0.012166
v -0.032740 0.012759 -0.017649
v -0.044254 -0.000585 0.001206
v -0.080960 0.193701 0.001206
v -0.094000 0.288697 0.001206
v -0.096755 0.373224 0.001206
v -0.075698 0.437862 0.001206
v -0.051184 0.483765 0.001206
v -0.036698 0.513416 0.001319
v -0.055281 0.527483 0.001206
v -0.054564 0.533884 0.001206
v -0.049328 0.535962 0.001206
v -0.027246 0.515297 0.001319
v -0.037792 0.012759 0.001206
v -0.038336 -0.000585 0.023293
v -0.070125 0.193701 0.041646
v -0.081417 0.288697 0.048166
v -0.083803 0.373224 0.049543
v -0.065567 0.437862 0.039015
v -0.044338 0.483765 0.026758
v -0.031818 0.513416 0.019530
v -0.047886 0.527483 0.028806
v -0.047264 0.533884 0.028448
v -0.042730 0.535962 0.025830
v -0.023632 0.515297 0.014804
v -0.032740 0.012759 0.020062
v -0.022168 -0.000585 0.039461
v -0.040521 0.193701 0.071250
v -0.047041 0.288697 0.082542
v -0.048418 0.373224 0.084928
v -0.037890 0.437862 0.066692
v -0.025633 0.483765 0.045463
v -0.018487 0.513416 0.032861
v -0.027681 0.527483 0.049011
v -0.027322 0.533884 0.048389
v -0.024705 0.535962 0.043855
v -0.013761 0.515297 0.024675
v -0.018937 0.012759 0.033865
v -0.000081 -0.000585 0.045379
v -0.000081 0.193701 0.082085
v -0.000081 0.288697 0.095125
v -0.000081 0.373224 0.097880
v -0.000081 0.437862 0.076823
v -0.000081 0.483765 0.052309
v -0.000276 0.513416 0.037741
v -0.000081 0.527483 0.056406
v -0.000081 0.533884 0.055689
v -0.000081 0.535962 0.050453
v -0.000276 0.515297 0.028289
v -0.000081 0.012759 0.038917
v 0.022005 -0.000585 0.039461
v 0.040358 0.193701 0.071250
v 0.046878 0.288697 0.082542
v 0.048256 0.373224 0.084928
v 0.037727 0.437862 0.066692
v 0.025470 0.483765 0.045463
v 0.017935 0.513416 0.032861
v 0.027519 0.527483 0.049011
v 0.027160 0.533884 0.048389
v 0.024542 0.535962 0.043855
v 0.013209 0.515297 0.024675
v 0.018774 0.012759 0.033865
v 0.038173 -0.000585 0.023293
v 0.069962 0.193701 0.041646
v 0.081255 0.288697 0.048166
v 0.083641 0.373224 0.049543
v 0.065405 0.437862 0.039015
v 0.044175 0.483765 0.026758
v 0.031267 0.513416 0.019530
v 0.047723 0.527483 0.028806
v 0.047102 0.533884 0.028448
v 0.042567 0.535962 0.025830
v 0.023081 0.515297 0.014804
v 0.032577 0.012759 0.020062
vt -5.0006 -0.3912
vt -5.0410 -0.3912
vt -5.0410 -0.5854
vt -5.0189 -0.5854
vt -4.9941 -0.2962
vt -5.0410 -0.2962
vt -4.9927 -0.2117
vt -5.0410 -0.2117
vt -5.0032 -0.1471
vt -5.0410 -0.1471
vt -5.0155 -0.1012
vt -5.0410 -0.1012
vt -5.0229 -0.0715
vt -5.0411 -0.0715
vt -6.5479 -5.0134
vt -6.5553 -5.0410
vt -6.5364 -5.0411
vt -6.5315 -5.0229
vt -5.0138 -0.0510
vt -5.0410 -0.0510
vt -5.0410 -0.0574
vt -5.0134 -0.0574
vt 7.5428 -5.0164
vt 7.5494 -5.0410
vt 7.5546 -5.0410
vt 7.5473 -5.0138
vt 7.5233 -5.0277
vt 7.5269 -5.0411
vt 6.0222 -0.5721
vt 6.0410 -0.5721
vt 6.0411 -0.0696
vt 6.0277 -0.0696
vt -6.5406 -0.3912
vt -6.5702 -0.3912
vt -6.5384 -0.5854
vt -6.5222 -0.5854
vt -4.9597 -0.2962
vt -4.9710 -0.3912
vt -4.9573 -0.2117
vt -4.9756 -0.1471
vt -4.9968 -0.1012
vt -5.0096 -0.0715
vt -6.5277 -4.9932
vt -6.5182 -5.0096
vt -4.9939 -0.0510
vt -4.9932 -0.0574
vt 7.5248 -4.9984
vt 7.5274 -4.9939
vt 7.5134 -5.0178
vt 7.5190 -0.5721
vt 7.5328 -0.5721
vt 7.5233 -0.0696
vt 7.5134 -0.0696
vt -6.5002 -0.3912
vt -6.5002 -0.5854
vt -6.5002 -0.2962
vt -6.5471 -0.2962
vt -6.5002 -0.2117
vt -6.5485 -0.2117
vt -6.5002 -0.1471
vt -6.5380 -0.1471
vt -6.5002 -0.1012
vt -6.5257 -0.1012
vt -6.5000 -0.0715
vt -6.5182 -0.0715
vt -6.5002 -4.9858
vt -6.5000 -5.0047
vt -6.5002 -0.0510
vt -6.5274 -0.0510
vt -6.5277 -0.0574
vt -6.5002 -0.0574
vt 7.5002 -4.9918
vt 7.5002 -4.9866
vt 7.5000 -5.0142
vt 7.5002 -0.5721
vt 7.5000 -0.0696
vt -6.4597 -0.3912
vt -6.4781 -0.5854
vt -6.4532 -0.2962
vt -6.4518 -0.2117
vt -6.4624 -0.1471
vt -6.4746 -0.1012
vt -6.4818 -0.0715
vt -6.4726 -4.9932
vt -6.4818 -5.0096
vt -6.4729 -0.0510
vt -6.4726 -0.0574
vt 7.4755 -4.9984
vt 7.4729 -4.9939
vt 7.4865 -5.0178
vt 7.4813 -0.5721
vt 7.4865 -0.0696
vt 6.0006 -0.3912
vt 5.9710 -0.3912
vt 6.0028 -0.5854
vt 6.0189 -0.5854
vt -6.4188 -0.2962
vt -6.4301 -0.3912
vt -6.4164 -0.2117
vt -6.4347 -0.1471
vt -6.4559 -0.1012
vt -6.4684 -0.0715
vt -6.4524 -5.0134
vt -6.4684 -5.0229
vt -6.4530 -0.0510
vt -6.4524 -0.0574
vt 7.4575 -5.0164
vt 7.4530 -5.0138
vt 7.4766 -5.0277
vt 7.4675 -0.5721
vt 7.4766 -0.0696
vt 6.0410 -0.3912
vt 6.0410 -0.5854
vt 6.0410 -0.2962
vt 5.9941 -0.2962
vt 6.0410 -0.2117
vt 5.9927 -0.2117
vt 6.0410 -0.1471
vt 6.0032 -0.1471
vt 6.0410 -0.1012
vt 6.0155 -0.1012
vt 6.0411 -0.0715
vt 6.0229 -0.0715
vt -6.4450 -5.0410
vt -6.4635 -5.0411
vt 6.0410 -0.0510
vt 6.0138 -0.0510
vt 6.0134 -0.0574
vt 6.0410 -0.0574
vt 7.4509 -5.0410
vt 7.4457 -5.0410
vt 7.4730 -5.0411
vt -5.0410 -0.5721
vt -5.0222 -0.5721
vt -5.0277 -0.0696
vt -5.0411 -0.0696
vt 6.0815 -0.3912
vt 6.0631 -0.5854
vt 6.0880 -0.2962
vt 6.0894 -0.2117
vt 6.0788 -0.1471
vt 6.0666 -0.1012
vt 6.0593 -0.0715
vt -6.4524 -5.0686
vt -6.4684 -5.0593
vt 6.0683 -0.0510
vt 6.0686 -0.0574
vt 7.4575 -5.0656
vt 7.4530 -5.0683
vt 7.4766 -5.0546
vt -5.0599 -0.5721
vt -5.0546 -0.0696
vt 7.4597 -0.3912
vt 7.4301 -0.3912
vt 7.4619 -0.5854
vt 7.4781 -0.5854
vt 6.1223 -0.2962
vt 6.1111 -0.3912
vt 6.1247 -0.2117
vt 6.1065 -0.1471
vt 6.0853 -0.1012
vt 6.0727 -0.0715
vt -6.4726 -5.0888
vt -6.4818 -5.0727
vt 6.0882 -0.0510
vt 6.0888 -0.0574
vt 7.4755 -5.0837
vt 7.4729 -5.0882
vt 7.4865 -5.0645
vt -5.0737 -0.5721
vt -5.0645 -0.0696
vt 7.5002 -0.3912
vt 7.5002 -0.5854
vt 7.5002 -0.2962
vt 7.4532 -0.2962
vt 7.5002 -0.2117
vt 7.4518 -0.2117
vt 7.5002 -0.1471
vt 7.4624 -0.1471
vt 7.5002 -0.1012
vt 7.4746 -0.1012
vt 7.5000 -0.0715
vt 7.4818 -0.0715
vt -6.5002 -5.0962
vt -6.5000 -5.0776
vt 7.5002 -0.0510
vt 7.4729 -0.0510
vt 7.4726 -0.0574
vt 7.5002 -0.0574
vt 7.5002 -5.0903
vt 7.5002 -5.0955
vt 7.5000 -5.0681
vt -6.5002 -0.5721
vt -6.4813 -0.5721
vt -6.4865 -0.0696
vt -6.5000 -0.0696
vt 7.5406 -0.3912
vt 7.5222 -0.5854
vt 7.5471 -0.2962
vt 7.5485 -0.2117
vt 7.5380 -0.1471
vt 7.5257 -0.1012
vt 7.5182 -0.0715
vt -6.5277 -5.0888
vt -6.5182 -5.0727
vt 7.5274 -0.0510
vt 7.5277 -0.0574
vt 7.5248 -5.0837
vt 7.5274 -5.0882
vt 7.5134 -5.0645
vt -6.5190 -0.5721
vt -6.5134 -0.0696
vt -5.0815 -0.3912
vt -5.1111 -0.3912
vt -5.0793 -0.5854
vt -5.0631 -0.5854
vt -5.0880 -0.2962
vt -5.1223 -0.2962
vt 7.5839 -0.2117
vt 7.5815 -0.2962
vt 7.5656 -0.1471
vt 7.5444 -0.1012
vt 7.5315 -0.0715
vt -6.5479 -5.0686
vt -6.5315 -5.0593
vt 7.5473 -0.0510
vt 7.5479 -0.0574
vt 7.5428 -5.0656
vt 7.5473 -5.0683
vt 7.5233 -5.0546
vt 6.0599 -0.5721
vt 6.0737 -0.5721
vt 6.0645 -0.0696
vt 6.0546 -0.0696
vt -5.0894 -0.2117
vt -5.0788 -0.1471
vt -5.0666 -0.1012
vt -5.0593 -0.0715
vt -5.0683 -0.0510
vt -5.0686 -0.0574
vt -6.5002 -4.9969
vt -6.5222 -5.0028
vt -6.5384 -5.0189
vt -6.5443 -5.0410
vt -6.5384 -5.0631
vt -6.5222 -5.0793
vt -6.5002 -5.0852
vt -6.4781 -5.0793
vt -6.4619 -5.0631
vt -6.4560 -5.0410
vt -6.4619 -5.0189
vt -6.4781 -5.0028
vn 0.8548 -0.1602 -0.4935
vn 0.9871 -0.1602 -0.0000
vn 0.6932 -0.7208 -0.0000
vn 0.6003 -0.7208 -0.3466
vn 0.8630 -0.0837 -0.4982
vn 0.9965 -0.0837 -0.0000
vn 0.8579 0.1369 -0.4953
vn 0.9906 0.1369 0.0000
vn 0.7986 0.3868 -0.4611
vn 0.9222 0.3868 0.0000
vn 0.7685 0.4610 -0.4437
vn 0.8876 0.4606 -0.0002
vn 0.8363 -0.2599 -0.4828
vn 0.9656 -0.2599 0.0007
vn 0.8038 -0.3722 -0.4641
vn 0.9283 -0.3719 -0.0002
vn 0.7121 0.5690 -0.4112
vn 0.8223 0.5690 0.0000
vn -0.0811 0.9956 0.0468
vn -0.0940 0.9956 0.0002
vn -0.7863 0.4191 0.4540
vn -0.9081 0.4188 -0.0003
vn -0.8658 -0.0218 0.4999
vn -0.9998 -0.0218 0.0000
vn 0.4935 -0.1602 -0.8548
vn 0.3466 -0.7208 -0.6003
vn 0.4982 -0.0837 -0.8630
vn 0.4953 0.1369 -0.8579
vn 0.4611 0.3868 -0.7986
vn 0.4440 0.4606 -0.7686
vn 0.4822 -0.2599 -0.8366
vn 0.4643 -0.3719 -0.8038
vn 0.4112 0.5690 -0.7121
vn -0.0471 0.9956 0.0813
vn -0.4538 0.4188 0.7866
vn -0.4999 -0.0218 0.8658
vn -0.0000 -0.1602 -0.9871
vn -0.0000 -0.7208 -0.6932
vn 0.0000 -0.0837 -0.9965
vn 0.0000 0.1369 -0.9906
vn 0.0000 0.3868 -0.9222
vn 0.0004 0.4597 -0.8881
vn -0.0013 -0.2599 -0.9656
vn 0.0004 -0.3710 -0.9286
vn 0.0000 0.5690 -0.8223
vn -0.0003 0.9955 0.0948
vn 0.0005 0.4179 0.9085
vn -0.0001 -0.0216 0.9998
vn -0.4935 -0.1602 -0.8548
vn -0.3466 -0.7208 -0.6003
vn -0.4982 -0.0837 -0.8630
vn -0.4953 0.1369 -0.8579
vn -0.4611 0.3868 -0.7986
vn -0.4440 0.4585 -0.7699
vn -0.4841 -0.2598 -0.8355
vn -0.4642 -0.3698 -0.8048
vn -0.4112 0.5690 -0.7121
vn 0.0476 0.9954 0.0832
vn 0.4551 0.4167 0.7869
vn 0.4998 -0.0214 0.8659
vn -0.8548 -0.1602 -0.4935
vn -0.6003 -0.7208 -0.3466
vn -0.8630 -0.0837 -0.4982
vn -0.8579 0.1369 -0.4953
vn -0.7986 0.3868 -0.4611
vn -0.7700 0.4572 -0.4450
vn -0.8369 -0.2598 -0.4817
vn -0.8048 -0.3687 -0.4651
vn -0.7121 0.5690 -0.4112
vn 0.0838 0.9953 0.0487
vn 0.7880 0.4155 0.4543
vn 0.8658 -0.0211 0.4999
vn -0.9871 -0.1602 0.0000
vn -0.6932 -0.7208 0.0000
vn -0.9965 -0.0837 0.0000
vn -0.9906 0.1369 -0.0000
vn -0.9222 0.3868 -0.0000
vn -0.8898 0.4563 -0.0002
vn -0.9657 -0.2598 0.0007
vn -0.9299 -0.3678 -0.0002
vn -0.8223 0.5690 -0.0000
vn 0.0977 0.9952 0.0002
vn 0.9100 0.4146 -0.0003
vn 0.9998 -0.0210 0.0000
vn -0.8548 -0.1602 0.4935
vn -0.6003 -0.7208 0.3466
vn -0.8630 -0.0837 0.4982
vn -0.8579 0.1369 0.4953
vn -0.7986 0.3868 0.4611
vn -0.7708 0.4560 0.4450
vn -0.8363 -0.2598 0.4828
vn -0.8054 -0.3675 0.4650
vn -0.7121 0.5690 0.4112
vn 0.0849 0.9952 -0.0490
vn 0.7882 0.4143 -0.4551
vn 0.8658 -0.0209 -0.4999
vn -0.4935 -0.1602 0.8548
vn -0.3466 -0.7208 0.6003
vn -0.4982 -0.0837 0.8630
vn -0.4953 0.1369 0.8579
vn -0.4611 0.3868 0.7986
vn -0.4447 0.4563 0.7707
vn -0.4835 -0.2598 0.8359
vn -0.4648 -0.3678 0.8054
vn -0.4112 0.5690 0.7121
vn 0.0487 0.9952 -0.0847
vn 0.4553 0.4146 -0.7879
vn 0.4999 -0.0210 -0.8659
vn 0.0000 -0.1602 0.9871
vn 0.0000 -0.7208 0.6932
vn -0.0000 -0.0837 0.9965
vn -0.0000 0.1369 0.9906
vn -0.0000 0.3868 0.9222
vn 0.0004 0.4572 0.8894
vn -0.0013 -0.2598 0.9657
vn 0.0004 -0.3687 0.9296
vn -0.0000 0.5690 0.8223
vn -0.0003 0.9953 -0.0969
vn 0.0005 0.4155 -0.9096
vn -0.0001 -0.0211 -0.9998
vn 0.4935 -0.1602 0.8548
vn 0.3466 -0.7208 0.6003
vn 0.4982 -0.0837 0.8630
vn 0.4953 0.1369 0.8579
vn 0.4611 0.3868 0.7986
vn 0.4447 0.4585 0.7694
vn 0.4815 -0.2598 0.8370
vn 0.4649 -0.3698 0.8044
vn 0.4112 0.5690 0.7121
vn -0.0482 0.9954 -0.0828
vn -0.4540 0.4167 -0.7876
vn -0.5000 -0.0214 -0.8658
vn 0.8548 -0.1602 0.4935
vn 0.6003 -0.7208 0.3466
vn 0.8630 -0.0837 0.4982
vn 0.8579 0.1369 0.4953
vn 0.7986 0.3868 0.4611
vn 0.7693 0.4597 0.4437
vn 0.8356 -0.2599 0.4839
vn 0.8044 -0.3710 0.4640
vn 0.7121 0.5690 0.4112
vn -0.0822 0.9955 -0.0471
vn -0.7865 0.4179 -0.4547
vn -0.8659 -0.0216 -0.4998
s 1
f 14/1/1 2/2/2 1/3/3
f 1/3/3 13/4/4 14/1/1
f 15/5/5 3/6/6 2/2/2
f 2/2/2 14/1/1 15/5/5
f 16/7/7 4/8/8 3/6/6
f 3/6/6 15/5/5 16/7/7
f 17/9/9 5/10/10 4/8/8
f 4/8/8 16/7/7 17/9/9
f 18/11/11 6/12/12 5/10/10
f 5/10/10 17/9/9 18/11/11
f 19/13/13 7/14/14 6/12/12
f 6/12/12 18/11/11 19/13/13
f 20/15/15 8/16/16 7/17/14
f 7/17/14 19/18/13 20/15/15
f 21/19/17 9/20/18 8/21/16
f 8/21/16 20/22/15 21/19/17
f 22/23/19 10/24/20 9/25/18
f 9/25/18 21/26/17 22/23/19
f 23/27/21 11/28/22 10/24/20
f 10/24/20 22/23/19 23/27/21
f 24/29/23 12/30/24 11/31/22
f 11/31/22 23/32/21 24/29/23
f 26/33/25 14/34/1 13/35/4
f 13/35/4 25/36/26 26/33/25
f 27/37/27 15/5/5 14/1/1
f 14/1/1 26/38/25 27/37/27
f 28/39/28 16/7/7 15/5/5
f 15/5/5 27/37/27 28/39/28
f 29/40/29 17/9/9 16/7/7
f 16/7/7 28/39/28 29/40/29
f 30/41/30 18/11/11 17/9/9
f 17/9/9 29/40/29 30/41/30
f 31/42/31 19/13/13 18/11/11
f 18/11/11 30/41/30 31/42/31
f 32/43/32 20/15/15 19/18/13
f 19/18/13 31/44/31 32/43/32
f 33/45/33 21/19/17 20/22/15
f 20/22/15 32/46/32 33/45/33
f 34/47/34 22/23/19 21/26/17
f 21/26/17 33/48/33 34/47/34
f 35/49/35 23/27/21 22/23/19
f 22/23/19 34/47/34 35/49/35
f 36/50/36 24/51/23 23/52/21
f 23/52/21 35/53/35 36/50/36
f 38/54/37 26/33/25 25/36/26
f 25/36/26 37/55/38 38/54/37
f 39/56/39 27/57/27 26/33/25
f 26/33/25 38/54/37 39/56/39
f 40/58/40 28/59/28 27/57/27
f 27/57/27 39/56/39 40/58/40
f 41/60/41 29/61/29 28/59/28
f 28/59/28 40/58/40 41/60/41
f 42/62/42 30/63/30 29/61/29
f 29/61/29 41/60/41 42/62/42
f 43/64/43 31/65/31 30/63/30
f 30/63/30 42/62/42 43/64/43
f 44/66/44 32/43/32 31/44/31
f 31/44/31 43/67/43 44/66/44
f 45/68/45 33/69/33 32/70/32
f 32/70/32 44/71/44 45/68/45
f 46/72/46 34/47/34 33/48/33
f 33/48/33 45/73/45 46/72/46
f 47/74/47 35/49/35 34/47/34
f 34/47/34 46/72/46 47/74/47
f 48/75/48 36/50/36 35/53/35
f 35/53/35 47/76/47 48/75/48
f 50/77/49 38/54/37 37/55/38
f 37/55/38 49/78/50 50/77/49
f 51/79/51 39/56/39 38/54/37
f 38/54/37 50/77/49 51/79/51
f 52/80/52 40/58/40 39/56/39
f 39/56/39 51/79/51 52/80/52
f 53/81/53 41/60/41 40/58/40
f 40/58/40 52/80/52 53/81/53
f 54/82/54 42/62/42 41/60/41
f 41/60/41 53/81/53 54/82/54
f 55/83/55 43/64/43 42/62/42
f 42/62/42 54/82/54 55/83/55
f 56/84/56 44/66/44 43/67/43
f 43/67/43 55/85/55 56/84/56
f 57/86/57 45/68/45 44/71/44
f 44/71/44 56/87/56 57/86/57
f 58/88/58 46/72/46 45/73/45
f 45/73/45 57/89/57 58/88/58
f 59/90/59 47/74/47 46/72/46
f 46/72/46 58/88/58 59/90/59
f 60/91/60 48/75/48 47/76/47
f 47/76/47 59/92/59 60/91/60
f 62/93/61 50/94/49 49/95/50
f 49/95/50 61/96/62 62/93/61
f 63/97/63 51/79/51 50/77/49
f 50/77/49 62/98/61 63/97/63
f 64/99/64 52/80/52 51/79/51
f 51/79/51 63/97/63 64/99/64
f 65/100/65 53/81/53 52/80/52
f 52/80/52 64/99/64 65/100/65
f 66/101/66 54/82/54 53/81/53
f 53/81/53 65/100/65 66/101/66
f 67/102/67 55/83/55 54/82/54
f 54/82/54 66/101/66 67/102/67
f 68/103/68 56/84/56 55/85/55
f 55/85/55 67/104/67 68/103/68
f 69/105/69 57/86/57 56/87/56
f 56/87/56 68/106/68 69/105/69
f 70/107/70 58/88/58 57/89/57
f 57/89/57 69/108/69 70/107/70
f 71/109/71 59/90/59 58/88/58
f 58/88/58 70/107/70 71/109/71
f 72/110/72 60/91/60 59/92/59
f 59/92/59 71/111/71 72/110/72
f 74/112/73 62/93/61 61/96/62
f 61/96/62 73/113/74 74/112/73
f 75/114/75 63/115/63 62/93/61
f 62/93/61 74/112/73 75/114/75
f 76/116/76 64/117/64 63/115/63
f 63/115/63 75/114/75 76/116/76
f 77/118/77 65/119/65 64/117/64
f 64/117/64 76/116/76 77/118/77
f 78/120/78 66/121/66 65/119/65
f 65/119/65 77/118/77 78/120/78
f 79/122/79 67/123/67 66/121/66
f 66/121/66 78/120/78 79/122/79
f 80/124/80 68/103/68 67/104/67
f 67/104/67 79/125/79 80/124/80
f 81/126/81 69/127/69 68/128/68
f 68/128/68 80/129/80 81/126/81
f 82/130/82 70/107/70 69/108/69
f 69/108/69 81/131/81 82/130/82
f 83/132/83 71/109/71 70/107/70
f 70/107/70 82/130/82 83/132/83
f 84/133/84 72/134/72 71/135/71
f 71/135/71 83/136/83 84/133/84
f 86/137/85 74/112/73 73/113/74
f 73/113/74 85/138/86 86/137/85
f 87/139/87 75/114/75 74/112/73
f 74/112/73 86/137/85 87/139/87
f 88/140/88 76/116/76 75/114/75
f 75/114/75 87/139/87 88/140/88
f 89/141/89 77/118/77 76/116/76
f 76/116/76 88/140/88 89/141/89
f 90/142/90 78/120/78 77/118/77
f 77/118/77 89/141/89 90/142/90
f 91/143/91 79/122/79 78/120/78
f 78/120/78 90/142/90 91/143/91
f 92/144/92 80/124/80 79/125/79
f 79/125/79 91/145/91 92/144/92
f 93/146/93 81/126/81 80/129/80
f 80/129/80 92/147/92 93/146/93
f 94/148/94 82/130/82 81/131/81
f 81/131/81 93/149/93 94/148/94
f 95/150/95 83/132/83 82/130/82
f 82/130/82 94/148/94 95/150/95
f 96/151/96 84/133/84 83/136/83
f 83/136/83 95/152/95 96/151/96
f 98/153/97 86/154/85 85/155/86
f 85/155/86 97/156/98 98/153/97
f 99/157/99 87/139/87 86/137/85
f 86/137/85 98/158/97 99/157/99
f 100/159/100 88/140/88 87/139/87
f 87/139/87 99/157/99 100/159/100
f 101/160/101 89/141/89 88/140/88
f 88/140/88 100/159/100 101/160/101
f 102/161/102 90/142/90 89/141/89
f 89/141/89 101/160/101 102/161/102
f 103/162/103 91/143/91 90/142/90
f 90/142/90 102/161/102 103/162/103
f 104/163/104 92/144/92 91/145/91
f 91/145/91 103/164/103 104/163/104
f 105/165/105 93/146/93 92/147/92
f 92/147/92 104/166/104 105/165/105
f 106/167/106 94/148/94 93/149/93
f 93/149/93 105/168/105 106/167/106
f 107/169/107 95/150/95 94/148/94
f 94/148/94 106/167/106 107/169/107
f 108/170/108 96/151/96 95/152/95
f 95/152/95 107/171/107 108/170/108
f 110/172/109 98/153/97 97/156/98
f 97/156/98 109/173/110 110/172/109
f 111/174/111 99/175/99 98/153/97
f 98/153/97 110/172/109 111/174/111
f 112/176/112 100/177/100 99/175/99
f 99/175/99 111/174/111 112/176/112
f 113/178/113 101/179/101 100/177/100
f 100/177/100 112/176/112 113/178/113
f 114/180/114 102/181/102 101/179/101
f 101/179/101 113/178/113 114/180/114
f 115/182/115 103/183/103 102/181/102
f 102/181/102 114/180/114 115/182/115
f 116/184/116 104/163/104 103/164/103
f 103/164/103 115/185/115 116/184/116
f 117/186/117 105/187/105 104/188/104
f 104/188/104 116/189/116 117/186/117
f 118/190/118 106/167/106 105/168/105
f 105/168/105 117/191/117 118/190/118
f 119/192/119 107/169/107 106/167/106
f 106/167/106 118/190/118 119/192/119
f 120/193/120 108/194/108 107/195/107
f 107/195/107 119/196/119 120/193/120
f 122/197/121 110/172/109 109/173/110
f 109/173/110 121/198/122 122/197/121
f 123/199/123 111/174/111 110/172/109
f 110/172/109 122/197/121 123/199/123
f 124/200/124 112/176/112 111/174/111
f 111/174/111 123/199/123 124/200/124
f 125/201/125 113/178/113 112/176/112
f 112/176/112 124/200/124 125/201/125
f 126/202/126 114/180/114 113/178/113
f 113/178/113 125/201/125 126/202/126
f 127/203/127 115/182/115 114/180/114
f 114/180/114 126/202/126 127/203/127
f 128/204/128 116/184/116 115/185/115
f 115/185/115 127/205/127 128/204/128
f 129/206/129 117/186/117 116/189/116
f 116/189/116 128/207/128 129/206/129
f 130/208/130 118/190/118 117/191/117
f 117/191/117 129/209/129 130/208/130
f 131/210/131 119/192/119 118/190/118
f 118/190/118 130/208/130 131/210/131
f 132/211/132 120/193/120 119/196/119
f 119/196/119 131/212/131 132/211/132
f 134/213/133 122/214/121 121/215/122
f 121/215/122 133/216/134 134/213/133
f 135/217/135 123/218/123 122/214/121
f 122/214/121 134/213/133 135/217/135
f 136/219/136 124/200/124 123/199/123
f 123/199/123 135/220/135 136/219/136
f 137/221/137 125/201/125 124/200/124
f 124/200/124 136/219/136 137/221/137
f 138/222/138 126/202/126 125/201/125
f 125/201/125 137/221/137 138/222/138
f 139/223/139 127/203/127 126/202/126
f 126/202/126 138/222/138 139/223/139
f 140/224/140 128/204/128 127/205/127
f 127/205/127 139/225/139 140/224/140
f 141/226/141 129/206/129 128/207/128
f 128/207/128 140/227/140 141/226/141
f 142/228/142 130/208/130 129/209/129
f 129/209/129 141/229/141 142/228/142
f 143/230/143 131/210/131 130/208/130
f 130/208/130 142/228/142 143/230/143
f 144/231/144 132/232/132 131/233/131
f 131/233/131 143/234/143 144/231/144
f 2/2/2 134/213/133 133/216/134
f 133/216/134 1/3/3 2/2/2
f 3/6/6 135/217/135 134/213/133
f 134/213/133 2/2/2 3/6/6
f 4/8/8 136/235/136 135/217/135
f 135/217/135 3/6/6 4/8/8
f 5/10/10 137/236/137 136/235/136
f 136/235/136 4/8/8 5/10/10
f 6/12/12 138/237/138 137/236/137
f 137/236/137 5/10/10 6/12/12
f 7/14/14 139/238/139 138/237/138
f 138/237/138 6/12/12 7/14/14
f 8/16/16 140/224/140 139/225/139
f 139/225/139 7/17/14 8/16/16
f 9/20/18 141/239/141 140/240/140
f 140/240/140 8/21/16 9/20/18
f 10/24/20 142/228/142 141/229/141
f 141/229/141 9/25/18 10/24/20
f 11/28/22 143/230/143 142/228/142
f 142/228/142 10/24/20 11/28/22
f 12/30/24 144/231/144 143/234/143
f 143/234/143 11/31/22 12/30/24
f 37/241/38 25/242/26 13/243/4
f 13/243/4 1/244/3 133/245/134
f 133/245/134 121/246/122 109/247/110
f 13/243/4 133/245/134 109/247/110
f 109/247/110 97/248/98 85/249/86
f 85/249/86 73/250/74 61/251/62
f 109/247/110 85/249/86 61/251/62
f 13/243/4 109/247/110 61/251/62
f 37/241/38 13/243/4 61/251/62
f 37/241/38 61/251/62 49/252/50
